# xmcd
#
# Track frame offsets:
#	150
#	16087
#	28840
#	47365
#	64587
#	75050
#	87990
#	100327
#	114040
#	127290
#	141277
#	156890
#
# Disc length: 2267
#
# Revision: 2
# Processed by: cddbd v1.5.1PL0 Copyright (c) Steve Scherf et al.
# Submitted via: audiograbber 1.80
# Normalized: r1:DSETVAR1
#
DISCID=8b08d90c
DTITLE=Various Artist - Number One Country Hits Of The 70's [CD1]
DYEAR=1900
DGENRE=
TTITLE0=Marty Robbins - My Woman My Woman My Wife
TTITLE1=Lynn Anderson - Rose Garden
TTITLE2=Johnny Cash - Sunday Mornin' Comin' Down
TTITLE3=Ray Price - For The Good Times
TTITLE4=David Houston - Baby Baby (I Know Your A Lady)
TTITLE5=Tammy Wynette - My Man (Understands)
TTITLE6=Sonny James - When The Snow Is On The Roses
TTITLE7=Barbara Fairchild - Teddy Bear Song
TTITLE8=Charlie Rich - Behind Closed Doors
TTITLE9=Tanya Tucker - What's Your Mama's Name
TTITLE10=Kris Kristofferson - Why Me
TTITLE11=George Jones And Tammy Wynette - We're Gonna Hold On
EXTD=
EXTT0=
EXTT1=
EXTT2=
EXTT3=
EXTT4=
EXTT5=
EXTT6=
EXTT7=
EXTT8=
EXTT9=
EXTT10=
EXTT11=
PLAYORDER=
